<svg width="25" height="25" viewBox="0 0 25 25" fill="none" xmlns="http://www.w3.org/2000/svg">
<path d="M12.5 0.6875C5.97676 0.6875 0.6875 5.97676 0.6875 12.5C0.6875 19.0232 5.97676 24.3125 12.5 24.3125C19.0232 24.3125 24.3125 19.0232 24.3125 12.5C24.3125 5.97676 19.0232 0.6875 12.5 0.6875ZM16.8611 16.9877L15.1209 16.9798L12.5 13.8553L9.88174 16.9771L8.13887 16.9851C8.02285 16.9851 7.92793 16.8928 7.92793 16.7741C7.92793 16.724 7.94639 16.6766 7.97803 16.637L11.4084 12.5501L7.97803 8.46582C7.94617 8.42718 7.92849 8.37879 7.92793 8.32871C7.92793 8.21269 8.02285 8.11777 8.13887 8.11777L9.88174 8.12568L12.5 11.2502L15.1183 8.12832L16.8585 8.12041C16.9745 8.12041 17.0694 8.2127 17.0694 8.33135C17.0694 8.38145 17.051 8.42891 17.0193 8.46846L13.5942 12.5527L17.022 16.6396C17.0536 16.6792 17.0721 16.7267 17.0721 16.7768C17.0721 16.8928 16.9771 16.9877 16.8611 16.9877Z" fill="#13C566"/>
</svg>
