<svg width="33" height="33" viewBox="0 0 33 33" fill="none" xmlns="http://www.w3.org/2000/svg">
<path d="M18.9751 13.2H26.4001V12.2331C26.4002 12.0044 26.3686 11.7767 26.306 11.5566L26.3044 11.55C26.1885 11.1472 25.9722 10.7805 25.6757 10.4841L19.216 4.0244C18.752 3.56072 18.123 3.30019 17.467 3.30005H9.9001C9.02488 3.30005 8.18552 3.64773 7.56665 4.2666C6.94778 4.88547 6.6001 5.72483 6.6001 6.60005V26.4C6.6001 27.2753 6.94778 28.1146 7.56665 28.7335C8.18552 29.3524 9.02488 29.7 9.9001 29.7H13.5647L13.5433 29.6572C13.2863 29.1622 13.1694 28.6066 13.205 28.05H9.9001C9.46249 28.05 9.04281 27.8762 8.73337 27.5668C8.42394 27.2573 8.2501 26.8377 8.2501 26.4V6.60005C8.2501 6.16244 8.42394 5.74276 8.73337 5.43332C9.04281 5.12389 9.46249 4.95005 9.9001 4.95005H16.5001V10.725C16.5001 11.3815 16.7609 12.011 17.225 12.4751C17.6892 12.9393 18.3187 13.2 18.9751 13.2ZM18.9751 11.55C18.7563 11.55 18.5465 11.4631 18.3917 11.3084C18.237 11.1537 18.1501 10.9439 18.1501 10.725V5.2916L24.4085 11.55H18.9751Z" fill="white"/>
<path d="M24.4368 15.7543C24.7225 15.4642 25.0629 15.2335 25.4382 15.0755C25.8135 14.9176 26.2164 14.8355 26.6236 14.834C27.0308 14.8325 27.4343 14.9116 27.8108 15.0668C28.1872 15.222 28.5293 15.4501 28.8172 15.7381C29.105 16.0261 29.3331 16.3682 29.4881 16.7448C29.6431 17.1213 29.7221 17.5248 29.7204 17.932C29.7188 18.3392 29.6365 18.7421 29.4785 19.1173C29.3204 19.4926 29.0896 19.8329 28.7994 20.1185L20.8299 28.0864C20.3656 28.5508 19.7839 28.8805 19.1469 29.0401L16.6752 29.6572C16.4294 29.7184 16.172 29.715 15.9279 29.6474C15.6838 29.5798 15.4613 29.4501 15.2822 29.2711C15.103 29.0921 14.9731 28.8698 14.9053 28.6257C14.8374 28.3817 14.8338 28.1243 14.8948 27.8785L15.5136 25.4068C15.672 24.7699 16.002 24.1858 16.4673 23.7238L24.4368 15.7543Z" fill="white"/>
</svg>
