<svg width="30" height="24" viewBox="0 0 30 24" fill="none" xmlns="http://www.w3.org/2000/svg">
<g clip-path="url(#clip0)">
<path d="M10.5 12C13.8141 12 16.5 9.31406 16.5 6C16.5 2.68594 13.8141 0 10.5 0C7.18594 0 4.5 2.68594 4.5 6C4.5 9.31406 7.18594 12 10.5 12ZM14.7 13.5H13.9172C12.8766 13.9781 11.7188 14.25 10.5 14.25C9.28125 14.25 8.12813 13.9781 7.08281 13.5H6.3C2.82188 13.5 0 16.3219 0 19.8V21.75C0 22.9922 1.00781 24 2.25 24H15.1359C15.0234 23.6812 14.9766 23.3438 15.0141 23.0016L15.3328 20.1469L15.3891 19.6266L15.7594 19.2562L19.3828 15.6328C18.2344 14.3344 16.5703 13.5 14.7 13.5ZM16.8234 20.3109L16.5047 23.1703C16.4531 23.6484 16.8563 24.0516 17.3297 23.9953L20.1844 23.6766L26.6484 17.2125L23.2875 13.8516L16.8234 20.3109ZM29.6719 12.6047L27.8953 10.8281C27.4594 10.3922 26.7469 10.3922 26.3109 10.8281L24.5391 12.6L24.3469 12.7922L27.7125 16.1531L29.6719 14.1937C30.1078 13.7531 30.1078 13.0453 29.6719 12.6047Z" fill="white"/>
</g>
<defs>
<clipPath id="clip0">
<rect width="30" height="24" fill="white"/>
</clipPath>
</defs>
</svg>
