<svg width="36" height="36" viewBox="0 0 36 36" fill="none" xmlns="http://www.w3.org/2000/svg">
<path d="M22.5 25.5C22.5 25.8978 22.342 26.2794 22.0607 26.5607C21.7794 26.842 21.3978 27 21 27C20.6022 27 20.2206 26.842 19.9393 26.5607C19.658 26.2794 19.5 25.8978 19.5 25.5C19.5 25.1022 19.658 24.7206 19.9393 24.4393C20.2206 24.158 20.6022 24 21 24C21.3978 24 21.7794 24.158 22.0607 24.4393C22.342 24.7206 22.5 25.1022 22.5 25.5Z" fill="white"/>
<path fill-rule="evenodd" clip-rule="evenodd" d="M7.5 26.25C7.5 27.2446 7.89509 28.1984 8.59835 28.9016C9.30161 29.6049 10.2554 30 11.25 30H19.5V33L21 32.0002L22.5 33V30H24.75C25.7446 30 26.6984 29.6049 27.4016 28.9016C28.1049 28.1984 28.5 27.2446 28.5 26.25V6.75C28.5 5.75544 28.1049 4.80161 27.4016 4.09835C26.6984 3.39509 25.7446 3 24.75 3H11.25C10.2554 3 9.30161 3.39509 8.59835 4.09835C7.89509 4.80161 7.5 5.75544 7.5 6.75V26.25ZM22.5 30H19.5V28.0988C18.9281 27.7685 18.4811 27.2589 18.2284 26.6487C17.9756 26.0386 17.9313 25.3621 18.1022 24.7242C18.2731 24.0863 18.6498 23.5226 19.1737 23.1206C19.6976 22.7186 20.3396 22.5007 21 22.5007C21.6604 22.5007 22.3024 22.7186 22.8263 23.1206C23.3502 23.5226 23.7269 24.0863 23.8978 24.7242C24.0687 25.3621 24.0244 26.0386 23.7716 26.6487C23.5189 27.2589 23.0719 27.7685 22.5 28.0988V30ZM13.5 8.25C13.5 8.05109 13.579 7.86032 13.7197 7.71967C13.8603 7.57902 14.0511 7.5 14.25 7.5H21.75C21.9489 7.5 22.1397 7.57902 22.2803 7.71967C22.421 7.86032 22.5 8.05109 22.5 8.25C22.5 8.44891 22.421 8.63968 22.2803 8.78033C22.1397 8.92098 21.9489 9 21.75 9H14.25C14.0511 9 13.8603 8.92098 13.7197 8.78033C13.579 8.63968 13.5 8.44891 13.5 8.25ZM11.25 12C11.0511 12 10.8603 12.079 10.7197 12.2197C10.579 12.3603 10.5 12.5511 10.5 12.75C10.5 12.9489 10.579 13.1397 10.7197 13.2803C10.8603 13.421 11.0511 13.5 11.25 13.5H24.75C24.9489 13.5 25.1397 13.421 25.2803 13.2803C25.421 13.1397 25.5 12.9489 25.5 12.75C25.5 12.5511 25.421 12.3603 25.2803 12.2197C25.1397 12.079 24.9489 12 24.75 12H11.25ZM10.5 15.75C10.5 15.5511 10.579 15.3603 10.7197 15.2197C10.8603 15.079 11.0511 15 11.25 15H24.75C24.9489 15 25.1397 15.079 25.2803 15.2197C25.421 15.3603 25.5 15.5511 25.5 15.75C25.5 15.9489 25.421 16.1397 25.2803 16.2803C25.1397 16.421 24.9489 16.5 24.75 16.5H11.25C11.0511 16.5 10.8603 16.421 10.7197 16.2803C10.579 16.1397 10.5 15.9489 10.5 15.75ZM11.25 18C11.0511 18 10.8603 18.079 10.7197 18.2197C10.579 18.3603 10.5 18.5511 10.5 18.75C10.5 18.9489 10.579 19.1397 10.7197 19.2803C10.8603 19.421 11.0511 19.5 11.25 19.5H24.75C24.9489 19.5 25.1397 19.421 25.2803 19.2803C25.421 19.1397 25.5 18.9489 25.5 18.75C25.5 18.5511 25.421 18.3603 25.2803 18.2197C25.1397 18.079 24.9489 18 24.75 18H11.25Z" fill="white"/>
</svg>
