<svg width="266" height="258" viewBox="0 0 266 258" fill="none" xmlns="http://www.w3.org/2000/svg">
<g filter="url(#filter0_dd)">
<path d="M261 124.736C261 193.041 203.724 248.471 133 248.471C62.2756 248.471 5 193.041 5 124.736C5 56.4297 62.2756 1 133 1C203.724 1 261 56.4297 261 124.736Z" stroke="#F0F0F0" stroke-width="2"/>
<path d="M159.137 173.618C169.721 186.624 216.293 205.758 248.51 177.665" stroke="#F0F0F0" stroke-width="2"/>
<path d="M148.464 182.197C142.782 182.197 138.664 180.812 136.111 178.042C134.132 175.949 133.142 173.118 133.142 169.548C133.142 166.717 133.589 163.455 134.483 159.762C135.376 156.007 136.685 151.176 138.409 145.267C140.133 139.297 141.409 134.373 142.239 130.495C143.133 126.618 143.58 123.048 143.58 119.786C143.58 115.785 142.718 112.677 140.994 110.461C139.079 108.122 136.015 106.953 131.801 106.953C129.439 106.953 127.269 107.199 125.29 107.691L109.585 178.965H81.4319L105.659 84.9798H129.024L127.492 98.6437H129.024C132.919 98.6437 136.589 97.6589 140.037 95.6893C143.484 93.6582 146.517 90.95 149.134 87.5648C151.56 84.3643 153.443 80.8252 154.784 76.9476C156.188 73.07 156.89 69.3155 156.89 65.6841C156.89 62.976 156.444 60.4217 155.55 58.0212C154.72 55.6208 153.475 53.5282 151.815 51.7432C148.049 47.8041 142.558 45.8345 135.345 45.8345C127.365 45.8345 120.119 46.8809 113.607 48.9735C107.159 51.0046 101.605 54.0206 96.945 58.0212C92.2209 62.0219 88.6139 66.8843 86.1242 72.6084C83.6344 78.3325 82.3895 84.7336 82.3895 91.8117C82.3895 95.7509 82.8364 98.8899 83.7302 101.229C83.9855 102.029 84.3047 102.737 84.6878 103.352C84.9431 103.783 85.0708 104.214 85.0708 104.645C77.9846 104.645 72.8136 103.291 69.5578 100.582C65.9189 97.6281 64.0995 92.858 64.0995 86.2723C64.0995 82.1485 65.0251 78.0863 66.8765 74.0856C68.7278 70.0233 71.3453 66.115 74.7288 62.3605C77.9208 58.7906 81.7192 55.467 86.1242 52.3895C90.5929 49.2505 95.4128 46.5423 100.584 44.265C111.437 39.5257 122.226 37.1561 132.951 37.1561C140.356 37.1561 146.868 37.987 152.486 39.6488C158.167 41.2491 162.923 43.5264 166.754 46.4808C170.329 49.2505 173.01 52.4511 174.798 56.0824C176.585 59.6523 177.479 63.4376 177.479 67.4383C177.479 73.4701 175.659 79.3172 172.02 84.9798C167.935 91.2578 162.7 96.1817 156.316 99.7515C161.359 101.229 164.902 103.598 166.945 106.86C168.86 109.999 169.818 113.939 169.818 118.678C169.818 122.186 169.403 125.941 168.573 129.941C167.743 133.881 166.562 138.558 165.03 143.975C163.306 150.006 162.061 154.623 161.295 157.823C160.593 160.962 160.242 163.855 160.242 166.502C160.242 169.456 160.912 172.072 162.253 174.349C163.657 176.565 165.541 178.104 167.903 178.965C160.051 181.119 153.571 182.197 148.464 182.197Z" fill="white"/>
<path d="M132.157 63.2106C132.157 69.2617 127.25 74.1671 121.196 74.1671C115.143 74.1671 110.235 69.2617 110.235 63.2106C110.235 57.1595 115.143 52.2541 121.196 52.2541C127.25 52.2541 132.157 57.1595 132.157 63.2106Z" fill="white"/>
</g>
<defs>
<filter id="filter0_dd" x="0" y="0" width="266" height="257.471" filterUnits="userSpaceOnUse" color-interpolation-filters="sRGB">
<feFlood flood-opacity="0" result="BackgroundImageFix"/>
<feColorMatrix in="SourceAlpha" type="matrix" values="0 0 0 0 0 0 0 0 0 0 0 0 0 0 0 0 0 0 127 0"/>
<feOffset dy="4"/>
<feGaussianBlur stdDeviation="2"/>
<feColorMatrix type="matrix" values="0 0 0 0 0 0 0 0 0 0 0 0 0 0 0 0 0 0 0.25 0"/>
<feBlend mode="normal" in2="BackgroundImageFix" result="effect1_dropShadow"/>
<feColorMatrix in="SourceAlpha" type="matrix" values="0 0 0 0 0 0 0 0 0 0 0 0 0 0 0 0 0 0 127 0"/>
<feOffset dy="4"/>
<feGaussianBlur stdDeviation="2"/>
<feColorMatrix type="matrix" values="0 0 0 0 0 0 0 0 0 0 0 0 0 0 0 0 0 0 0.25 0"/>
<feBlend mode="normal" in2="effect1_dropShadow" result="effect2_dropShadow"/>
<feBlend mode="normal" in="SourceGraphic" in2="effect2_dropShadow" result="shape"/>
</filter>
</defs>
</svg>
