<svg width="40" height="42" viewBox="0 0 40 42" fill="none" xmlns="http://www.w3.org/2000/svg">
<g clip-path="url(#clip0)">
<path d="M7.425 3.48387C7.65972 3.2006 7.95109 2.97319 8.27909 2.81726C8.60708 2.66134 8.9639 2.58062 9.325 2.58064H30.675C31.0361 2.58062 31.3929 2.66134 31.7209 2.81726C32.0489 2.97319 32.3403 3.2006 32.575 3.48387L39.0975 11.3394C39.6799 12.0409 40 12.9342 40 13.8581V14.5161C40.0001 15.7935 39.6136 17.039 38.8945 18.0785C38.1754 19.118 37.1597 19.8997 35.9892 20.3142C34.8187 20.7287 33.552 20.7553 32.3662 20.3904C31.1803 20.0254 30.1345 19.2871 29.375 18.2787C28.8204 19.0162 28.1096 19.6128 27.2971 20.023C26.4846 20.4332 25.592 20.646 24.6875 20.6452C23.783 20.6462 22.8903 20.4335 22.0778 20.0233C21.2653 19.6131 20.5545 19.0163 20 18.2787C19.4455 19.0163 18.7347 19.6131 17.9222 20.0233C17.1097 20.4335 16.217 20.6462 15.3125 20.6452C14.408 20.6462 13.5153 20.4335 12.7028 20.0233C11.8903 19.6131 11.1795 19.0163 10.625 18.2787C9.86548 19.2871 8.81971 20.0254 7.63384 20.3904C6.44798 20.7553 5.18129 20.7287 4.01081 20.3142C2.84033 19.8997 1.82456 19.118 1.10546 18.0785C0.386355 17.039 -0.000136496 15.7935 3.61613e-08 14.5161V13.8581C3.15188e-05 12.9342 0.320141 12.0409 0.9025 11.3394L7.4275 3.48129L7.425 3.48387ZM11.875 14.5161C11.875 15.4572 12.2372 16.3598 12.8818 17.0252C13.5265 17.6907 14.4008 18.0645 15.3125 18.0645C16.2242 18.0645 17.0985 17.6907 17.7432 17.0252C18.3878 16.3598 18.75 15.4572 18.75 14.5161C18.75 14.1739 18.8817 13.8457 19.1161 13.6037C19.3505 13.3617 19.6685 13.2258 20 13.2258C20.3315 13.2258 20.6495 13.3617 20.8839 13.6037C21.1183 13.8457 21.25 14.1739 21.25 14.5161C21.25 15.4572 21.6122 16.3598 22.2568 17.0252C22.9015 17.6907 23.7758 18.0645 24.6875 18.0645C25.5992 18.0645 26.4735 17.6907 27.1182 17.0252C27.7628 16.3598 28.125 15.4572 28.125 14.5161C28.125 14.1739 28.2567 13.8457 28.4911 13.6037C28.7255 13.3617 29.0435 13.2258 29.375 13.2258C29.7065 13.2258 30.0245 13.3617 30.2589 13.6037C30.4933 13.8457 30.625 14.1739 30.625 14.5161C30.625 15.4572 30.9872 16.3598 31.6318 17.0252C32.2765 17.6907 33.1508 18.0645 34.0625 18.0645C34.9742 18.0645 35.8485 17.6907 36.4932 17.0252C37.1378 16.3598 37.5 15.4572 37.5 14.5161V13.8581C37.5 13.5505 37.3936 13.2531 37.2 13.0194L30.675 5.16129H9.325L2.8 13.0194C2.60637 13.2531 2.49998 13.5505 2.5 13.8581V14.5161C2.5 15.4572 2.86216 16.3598 3.50682 17.0252C4.15148 17.6907 5.02582 18.0645 5.9375 18.0645C6.84918 18.0645 7.72352 17.6907 8.36818 17.0252C9.01284 16.3598 9.375 15.4572 9.375 14.5161C9.375 14.1739 9.5067 13.8457 9.74112 13.6037C9.97554 13.3617 10.2935 13.2258 10.625 13.2258C10.9565 13.2258 11.2745 13.3617 11.5089 13.6037C11.7433 13.8457 11.875 14.1739 11.875 14.5161ZM3.75 21.9355C4.08152 21.9355 4.39946 22.0714 4.63388 22.3134C4.8683 22.5554 5 22.8836 5 23.2258V38.7097H7.5V25.8064C7.5 25.122 7.76339 24.4656 8.23223 23.9817C8.70107 23.4977 9.33696 23.2258 10 23.2258H17.5C18.163 23.2258 18.7989 23.4977 19.2678 23.9817C19.7366 24.4656 20 25.122 20 25.8064V38.7097H35V23.2258C35 22.8836 35.1317 22.5554 35.3661 22.3134C35.6005 22.0714 35.9185 21.9355 36.25 21.9355C36.5815 21.9355 36.8995 22.0714 37.1339 22.3134C37.3683 22.5554 37.5 22.8836 37.5 23.2258V38.7097H38.75C39.0815 38.7097 39.3995 38.8456 39.6339 39.0876C39.8683 39.3296 40 39.6578 40 40C40 40.3422 39.8683 40.6704 39.6339 40.9124C39.3995 41.1544 39.0815 41.2903 38.75 41.2903H1.25C0.918479 41.2903 0.600537 41.1544 0.366117 40.9124C0.131696 40.6704 3.61613e-08 40.3422 3.61613e-08 40C3.61613e-08 39.6578 0.131696 39.3296 0.366117 39.0876C0.600537 38.8456 0.918479 38.7097 1.25 38.7097H2.5V23.2258C2.5 22.8836 2.6317 22.5554 2.86612 22.3134C3.10054 22.0714 3.41848 21.9355 3.75 21.9355ZM10 38.7097H17.5V25.8064H10V38.7097ZM22.5 25.8064C22.5 25.122 22.7634 24.4656 23.2322 23.9817C23.7011 23.4977 24.337 23.2258 25 23.2258H30C30.663 23.2258 31.2989 23.4977 31.7678 23.9817C32.2366 24.4656 32.5 25.122 32.5 25.8064V33.5484C32.5 34.2328 32.2366 34.8892 31.7678 35.3732C31.2989 35.8571 30.663 36.129 30 36.129H25C24.337 36.129 23.7011 35.8571 23.2322 35.3732C22.7634 34.8892 22.5 34.2328 22.5 33.5484V25.8064ZM30 25.8064H25V33.5484H30V25.8064Z" fill="white"/>
</g>
<defs>
<clipPath id="clip0">
<rect width="40" height="41.2903" fill="white"/>
</clipPath>
</defs>
</svg>
