<svg width="44" height="46" viewBox="0 0 44 46" fill="none" xmlns="http://www.w3.org/2000/svg">
<path d="M12.8335 34.0645C10.8168 34.0645 9.18516 35.7677 9.18516 37.8495C9.18516 39.9312 10.8168 41.6344 12.8335 41.6344C14.8502 41.6344 16.5002 39.9312 16.5002 37.8495C16.5002 35.7677 14.8502 34.0645 12.8335 34.0645ZM1.8335 3.78494V7.56989H5.50016L12.1002 21.9338L9.62516 26.5703C9.33183 27.1002 9.16683 27.7247 9.16683 28.3871C9.16683 30.4688 10.8168 32.172 12.8335 32.172H34.8335V28.3871H13.6035C13.3468 28.3871 13.1452 28.1789 13.1452 27.914L13.2002 27.6869L14.8502 24.6021H28.5085C29.8835 24.6021 31.0935 23.8262 31.7168 22.6529L38.2802 10.3707C38.4268 10.1058 38.5002 9.78408 38.5002 9.46236C38.5002 8.4215 37.6752 7.56989 36.6668 7.56989H9.55183L7.8285 3.78494H1.8335ZM31.1668 34.0645C29.1502 34.0645 27.5185 35.7677 27.5185 37.8495C27.5185 39.9312 29.1502 41.6344 31.1668 41.6344C33.1835 41.6344 34.8335 39.9312 34.8335 37.8495C34.8335 35.7677 33.1835 34.0645 31.1668 34.0645Z" fill="#117841"/>
</svg>
