<svg width="111" height="108" viewBox="0 0 111 108" fill="#000000" xmlns="http://www.w3.org/2000/svg">
<path d="M110 53.6863C110 82.753 85.6311 106.373 55.5 106.373C25.3689 106.373 1 82.753 1 53.6863C1 24.6195 25.3689 1 55.5 1C85.6311 1 110 24.6195 110 53.6863Z" stroke="white" stroke-width="2"/>
<path d="M66.7451 74.7255C71.2986 80.3231 91.3356 88.5582 105.196 76.4673" stroke="white" stroke-width="2"/>
<path d="M62.153 78.4175C59.7085 78.4175 57.9369 77.8214 56.8383 76.6294C55.9869 75.7287 55.5611 74.5101 55.5611 72.9736C55.5611 71.7551 55.7534 70.351 56.1379 68.7616C56.5224 67.1457 57.0855 65.0661 57.8271 62.523C58.5687 59.9534 59.118 57.8341 59.475 56.1652C59.8596 54.4963 60.0518 52.9598 60.0518 51.5558C60.0518 49.8339 59.681 48.4961 58.9394 47.5425C58.1155 46.5358 56.7971 46.0325 54.9844 46.0325C53.9681 46.0325 53.0343 46.1385 52.1828 46.3504L45.4262 77.0267H33.3137L43.7369 36.5753H53.7896L53.1304 42.4562H53.7896C55.465 42.4562 57.0443 42.0324 58.5275 41.1847C60.0106 40.3105 61.3152 39.1449 62.4413 37.6879C63.4851 36.3104 64.2953 34.7872 64.8721 33.1182C65.4763 31.4493 65.7785 29.8334 65.7785 28.2704C65.7785 27.1048 65.5862 26.0055 65.2017 24.9723C64.8446 23.9392 64.309 23.0385 63.5949 22.2703C61.9744 20.5749 59.6124 19.7271 56.5087 19.7271C53.0755 19.7271 49.9581 20.1775 47.1566 21.0782C44.3825 21.9524 41.993 23.2504 39.988 24.9723C37.9555 26.6942 36.4037 28.787 35.3325 31.2506C34.2613 33.7143 33.7257 36.4693 33.7257 39.5158C33.7257 41.2112 33.918 42.5622 34.3025 43.5689C34.4124 43.9132 34.5497 44.2179 34.7145 44.4828C34.8244 44.6682 34.8793 44.8537 34.8793 45.0391C31.8306 45.0391 29.6058 44.4563 28.2051 43.2907C26.6395 42.0191 25.8567 39.9661 25.8567 37.1316C25.8567 35.3567 26.255 33.6083 27.0515 31.8864C27.848 30.138 28.9741 28.4559 30.4298 26.8399C31.8031 25.3035 33.4373 23.873 35.3325 22.5484C37.2551 21.1974 39.3288 20.0318 41.5535 19.0516C46.2227 17.0118 50.8645 15.9919 55.4787 15.9919C58.6648 15.9919 61.4663 16.3496 63.8833 17.0648C66.3278 17.7536 68.374 18.7337 70.0219 20.0053C71.56 21.1974 72.7136 22.5749 73.4826 24.1379C74.2517 25.6743 74.6362 27.3035 74.6362 29.0254C74.6362 31.6215 73.8534 34.1381 72.2879 36.5753C70.5301 39.2773 68.2779 41.3966 65.5313 42.9331C67.7011 43.5689 69.2254 44.5888 70.1043 45.9928C70.9283 47.3438 71.3403 49.0392 71.3403 51.079C71.3403 52.589 71.1618 54.2049 70.8047 55.9268C70.4477 57.6222 69.9395 59.6355 69.2804 61.9667C68.5388 64.5628 68.0032 66.5496 67.6736 67.9271C67.3715 69.2782 67.2204 70.5232 67.2204 71.6623C67.2204 72.9339 67.5088 74.0598 68.0856 75.0399C68.6898 75.9936 69.5001 76.6558 70.5163 77.0267C67.138 77.9539 64.3502 78.4175 62.153 78.4175Z" fill="white"/>
<path d="M55.1373 27.2059C55.1373 29.8103 53.026 31.9216 50.4216 31.9216C47.8172 31.9216 45.7059 29.8103 45.7059 27.2059C45.7059 24.6015 47.8172 22.4902 50.4216 22.4902C53.026 22.4902 55.1373 24.6015 55.1373 27.2059Z" fill="white"/>
</svg>
