<svg width="45" height="29" viewBox="0 0 45 29" fill="none" xmlns="http://www.w3.org/2000/svg">
<path d="M31.3127 16.2796C28.9627 16.2796 25.3006 16.9669 22.5002 18.3011C19.6997 16.9467 16.0377 16.2796 13.6877 16.2796C9.43808 16.2796 0.958496 18.4628 0.958496 22.8495V28.4086H44.0418V22.8495C44.0418 18.4628 35.5622 16.2796 31.3127 16.2796ZM23.4793 25.3764H3.896V22.8495C3.896 21.7579 8.90933 19.3118 13.6877 19.3118C18.466 19.3118 23.4793 21.7579 23.4793 22.8495V25.3764ZM41.1043 25.3764H26.4168V22.8495C26.4168 21.9196 26.0252 21.111 25.3985 20.3832C27.1218 19.7768 29.2368 19.3118 31.3127 19.3118C36.091 19.3118 41.1043 21.7579 41.1043 22.8495V25.3764ZM13.6877 14.2581C17.4672 14.2581 20.5418 11.0843 20.5418 7.1828C20.5418 3.28129 17.4672 0.107529 13.6877 0.107529C9.90808 0.107529 6.8335 3.28129 6.8335 7.1828C6.8335 11.0843 9.90808 14.2581 13.6877 14.2581ZM13.6877 3.13979C15.8418 3.13979 17.6043 4.95914 17.6043 7.1828C17.6043 9.40646 15.8418 11.2258 13.6877 11.2258C11.5335 11.2258 9.771 9.40646 9.771 7.1828C9.771 4.95914 11.5335 3.13979 13.6877 3.13979ZM31.3127 14.2581C35.0922 14.2581 38.1668 11.0843 38.1668 7.1828C38.1668 3.28129 35.0922 0.107529 31.3127 0.107529C27.5331 0.107529 24.4585 3.28129 24.4585 7.1828C24.4585 11.0843 27.5331 14.2581 31.3127 14.2581ZM31.3127 3.13979C33.4668 3.13979 35.2293 4.95914 35.2293 7.1828C35.2293 9.40646 33.4668 11.2258 31.3127 11.2258C29.1585 11.2258 27.396 9.40646 27.396 7.1828C27.396 4.95914 29.1585 3.13979 31.3127 3.13979Z" fill="#117841"/>
</svg>
