<svg width="95" height="94" viewBox="0 0 95 94" fill="none" xmlns="http://www.w3.org/2000/svg">
<rect width="95" height="93.572" rx="46.786" fill="url(#paint0_linear)"/>
<path d="M44.2346 51.1628C44.1834 42.8078 49.6974 26.409 72.1629 27.6534C72.4094 46.9333 53.6468 51.3596 44.2346 51.1628Z" fill="white"/>
<path d="M46.7273 50.547C39.8652 51.5872 25.739 46.8924 24.1309 19.7917C39.9508 17.2374 45.7868 39.2309 46.7273 50.547Z" fill="white"/>
<path d="M43.9573 49.3821C43.936 49.4238 43.9138 49.4671 43.8908 49.5119C42.4124 56.7385 41.2999 61.9486 48.1864 66.8615C50.232 68.2057 49.314 68.206 48.1864 68.2061L42.2668 68.2066C39.6142 57.6646 42.7606 51.7142 43.8908 49.5119C43.8959 49.4871 43.901 49.4623 43.9061 49.4374C43.9061 49.4374 45.0234 47.2903 43.9573 49.3821Z" fill="white"/>
<defs>
<linearGradient id="paint0_linear" x1="-3.22615e-07" y1="53.5995" x2="95.0001" y2="53.5631" gradientUnits="userSpaceOnUse">
<stop stop-color="#23D678"/>
<stop offset="1" stop-color="#55D94A"/>
</linearGradient>
</defs>
</svg>
