<svg width="14" height="11" viewBox="0 0 14 11" fill="none" xmlns="http://www.w3.org/2000/svg">
<path d="M5.07036 1.62054C5.80828 -0.16161 8.33265 -0.161609 9.07057 1.62054L9.14834 1.80836C9.43627 2.50373 10.1148 2.95715 10.8674 2.95715H11.6497C13.3459 2.95715 13.9421 5.20652 12.4685 6.04663C11.7449 6.4592 11.4412 7.34571 11.7598 8.11534L11.7945 8.19913C12.4346 9.74483 10.7556 11.2251 9.30225 10.3966L8.16278 9.74692C7.48572 9.36092 6.65521 9.36092 5.97815 9.74692L4.83869 10.3966C3.38533 11.2251 1.70637 9.74483 2.34639 8.19913L2.38108 8.11534C2.69976 7.34571 2.39608 6.4592 1.67243 6.04663C0.198875 5.20652 0.79504 2.95715 2.49125 2.95715H3.27354C4.02616 2.95715 4.70466 2.50373 4.99259 1.80836L5.07036 1.62054Z" fill="#E7FA0A"/>
</svg>
