<svg width="20" height="20" viewBox="0 0 20 20" fill="none" xmlns="http://www.w3.org/2000/svg">
<path d="M17.5 1.875H2.5C1.80964 1.875 1.25 2.43464 1.25 3.125V3.75C1.25 4.44036 1.80964 5 2.5 5H17.5C18.1904 5 18.75 4.44036 18.75 3.75V3.125C18.75 2.43464 18.1904 1.875 17.5 1.875Z" fill="#FE5858"/>
<path d="M2.90843 6.25C2.86451 6.24977 2.82104 6.25879 2.78085 6.27648C2.74065 6.29417 2.70464 6.32014 2.67515 6.35268C2.64567 6.38523 2.62337 6.42362 2.60972 6.46536C2.59607 6.5071 2.59137 6.55125 2.59593 6.59493L3.62366 16.4606C3.62345 16.4634 3.62345 16.4663 3.62366 16.4691C3.67736 16.9255 3.89674 17.3462 4.24015 17.6514C4.58355 17.9567 5.02709 18.1252 5.48655 18.125H14.5135C14.9728 18.125 15.4162 17.9564 15.7594 17.6512C16.1027 17.3459 16.3219 16.9253 16.3756 16.4691V16.4609L17.4018 6.59493C17.4063 6.55125 17.4016 6.5071 17.388 6.46536C17.3743 6.42362 17.352 6.38523 17.3226 6.35268C17.2931 6.32014 17.2571 6.29417 17.2169 6.27648C17.1767 6.25879 17.1332 6.24977 17.0893 6.25H2.90843ZM12.6295 13.3082C12.6889 13.3659 12.7363 13.4349 12.7688 13.5111C12.8013 13.5873 12.8184 13.6692 12.819 13.752C12.8196 13.8349 12.8037 13.917 12.7722 13.9937C12.7408 14.0703 12.6944 14.1399 12.6358 14.1985C12.5772 14.2571 12.5076 14.3034 12.4309 14.3348C12.3543 14.3662 12.2721 14.3821 12.1893 14.3814C12.1064 14.3808 12.0245 14.3637 11.9484 14.3312C11.8722 14.2986 11.8032 14.2512 11.7455 14.1918L10.0002 12.4465L8.25452 14.1918C8.13677 14.3062 7.97873 14.3697 7.81455 14.3685C7.65038 14.3674 7.49326 14.3016 7.37714 14.1856C7.26102 14.0695 7.19524 13.9124 7.194 13.7482C7.19277 13.5841 7.25618 13.426 7.37053 13.3082L9.11624 11.5625L7.37053 9.8168C7.25618 9.699 7.19277 9.54093 7.194 9.37676C7.19524 9.21259 7.26102 9.05549 7.37714 8.93942C7.49326 8.82336 7.65038 8.75764 7.81455 8.75648C7.97873 8.75532 8.13677 8.8188 8.25452 8.93321L10.0002 10.6785L11.7455 8.93321C11.8633 8.8188 12.0213 8.75532 12.1855 8.75648C12.3497 8.75764 12.5068 8.82336 12.6229 8.93942C12.739 9.05549 12.8048 9.21259 12.8061 9.37676C12.8073 9.54093 12.7439 9.699 12.6295 9.8168L10.8838 11.5625L12.6295 13.3082Z" fill="#FE5858"/>
</svg>
